{"asset":{"version":"2.0","generator":"Blockbench 4.10.4 glTF exporter"},"scenes":[{"nodes":[18],"name":"blockbench_export"}],"scene":0,"nodes":[{"translation":[-0.1875,-0.25,0.0625],"name":"cube","mesh":0},{"translation":[0,-0.25,-0.25],"name":"cube","mesh":1},{"translation":[0.1875,-0.25,0.0625],"name":"cube","mesh":2},{"translation":[0,-0.03125,-0.6875],"name":"head","children":[0,1,2]},{"translation":[0,-0.3125,0.5625],"name":"cube","mesh":3},{"translation":[0,-0.3125,2.5],"name":"cube","mesh":4},{"translation":[0,-0.3125,1.625],"name":"cube","mesh":5},{"translation":[0,0.03125,1.25],"name":"tall","children":[4,5,6]},{"translation":[0,-0.28125,0.6875],"name":"cube","mesh":6},{"translation":[0,-0.28125,1.0625],"name":"cube","mesh":7},{"name":"body_tall","children":[7,8,9]},{"translation":[0.25,0,0.25],"name":"cube","mesh":8},{"translation":[0.25,-0.21875,-0.4375],"name":"right_fin","children":[11]},{"translation":[-0.25,0,0.25],"name":"cube","mesh":9},{"translation":[-0.25,-0.21875,-0.4375],"name":"left_fin","children":[13]},{"translation":[0,-0.28125,-0.125],"name":"cube","mesh":10},{"translation":[0,0.21875,-0.125],"name":"cube","mesh":11},{"translation":[0,0.28125,0.1875],"name":"body","children":[3,10,12,14,15,16]},{"children":[17]}],"bufferViews":[{"buffer":0,"byteOffset":0,"byteLength":288,"target":34962,"byteStride":12},{"buffer":0,"byteOffset":288,"byteLength":288,"target":34962,"byteStride":12},{"buffer":0,"byteOffset":576,"byteLength":192,"target":34962,"byteStride":8},{"buffer":0,"byteOffset":768,"byteLength":72,"target":34963},{"buffer":0,"byteOffset":840,"byteLength":288,"target":34962,"byteStride":12},{"buffer":0,"byteOffset":1128,"byteLength":288,"target":34962,"byteStride":12},{"buffer":0,"byteOffset":1416,"byteLength":192,"target":34962,"byteStride":8},{"buffer":0,"byteOffset":1608,"byteLength":72,"target":34963},{"buffer":0,"byteOffset":1680,"byteLength":288,"target":34962,"byteStride":12},{"buffer":0,"byteOffset":1968,"byteLength":288,"target":34962,"byteStride":12},{"buffer":0,"byteOffset":2256,"byteLength":192,"target":34962,"byteStride":8},{"buffer":0,"byteOffset":2448,"byteLength":72,"target":34963},{"buffer":0,"byteOffset":2520,"byteLength":288,"target":34962,"byteStride":12},{"buffer":0,"byteOffset":2808,"byteLength":288,"target":34962,"byteStride":12},{"buffer":0,"byteOffset":3096,"byteLength":192,"target":34962,"byteStride":8},{"buffer":0,"byteOffset":3288,"byteLength":72,"target":34963},{"buffer":0,"byteOffset":3360,"byteLength":288,"target":34962,"byteStride":12},{"buffer":0,"byteOffset":3648,"byteLength":288,"target":34962,"byteStride":12},{"buffer":0,"byteOffset":3936,"byteLength":192,"target":34962,"byteStride":8},{"buffer":0,"byteOffset":4128,"byteLength":72,"target":34963},{"buffer":0,"byteOffset":4200,"byteLength":288,"target":34962,"byteStride":12},{"buffer":0,"byteOffset":4488,"byteLength":288,"target":34962,"byteStride":12},{"buffer":0,"byteOffset":4776,"byteLength":192,"target":34962,"byteStride":8},{"buffer":0,"byteOffset":4968,"byteLength":72,"target":34963},{"buffer":0,"byteOffset":5040,"byteLength":288,"target":34962,"byteStride":12},{"buffer":0,"byteOffset":5328,"byteLength":288,"target":34962,"byteStride":12},{"buffer":0,"byteOffset":5616,"byteLength":192,"target":34962,"byteStride":8},{"buffer":0,"byteOffset":5808,"byteLength":72,"target":34963},{"buffer":0,"byteOffset":5880,"byteLength":288,"target":34962,"byteStride":12},{"buffer":0,"byteOffset":6168,"byteLength":288,"target":34962,"byteStride":12},{"buffer":0,"byteOffset":6456,"byteLength":192,"target":34962,"byteStride":8},{"buffer":0,"byteOffset":6648,"byteLength":72,"target":34963},{"buffer":0,"byteOffset":6720,"byteLength":288,"target":34962,"byteStride":12},{"buffer":0,"byteOffset":7008,"byteLength":288,"target":34962,"byteStride":12},{"buffer":0,"byteOffset":7296,"byteLength":192,"target":34962,"byteStride":8},{"buffer":0,"byteOffset":7488,"byteLength":72,"target":34963},{"buffer":0,"byteOffset":7560,"byteLength":288,"target":34962,"byteStride":12},{"buffer":0,"byteOffset":7848,"byteLength":288,"target":34962,"byteStride":12},{"buffer":0,"byteOffset":8136,"byteLength":192,"target":34962,"byteStride":8},{"buffer":0,"byteOffset":8328,"byteLength":72,"target":34963},{"buffer":0,"byteOffset":8400,"byteLength":288,"target":34962,"byteStride":12},{"buffer":0,"byteOffset":8688,"byteLength":288,"target":34962,"byteStride":12},{"buffer":0,"byteOffset":8976,"byteLength":192,"target":34962,"byteStride":8},{"buffer":0,"byteOffset":9168,"byteLength":72,"target":34963},{"buffer":0,"byteOffset":9240,"byteLength":288,"target":34962,"byteStride":12},{"buffer":0,"byteOffset":9528,"byteLength":288,"target":34962,"byteStride":12},{"buffer":0,"byteOffset":9816,"byteLength":192,"target":34962,"byteStride":8},{"buffer":0,"byteOffset":10008,"byteLength":72,"target":34963},{"buffer":0,"byteOffset":10080,"byteLength":156},{"buffer":0,"byteOffset":10236,"byteLength":624},{"buffer":0,"byteOffset":10860,"byteLength":148},{"buffer":0,"byteOffset":11008,"byteLength":592},{"buffer":0,"byteOffset":11600,"byteLength":4},{"buffer":0,"byteOffset":11604,"byteLength":16},{"buffer":0,"byteOffset":11620,"byteLength":4},{"buffer":0,"byteOffset":11624,"byteLength":16},{"buffer":0,"byteOffset":11640,"byteLength":148},{"buffer":0,"byteOffset":11788,"byteLength":592},{"buffer":0,"byteOffset":12380,"byteLength":148},{"buffer":0,"byteOffset":12528,"byteLength":592},{"buffer":0,"byteOffset":13120,"byteLength":156},{"buffer":0,"byteOffset":13276,"byteLength":624},{"buffer":0,"byteOffset":13900,"byteLength":148},{"buffer":0,"byteOffset":14048,"byteLength":592},{"buffer":0,"byteOffset":14640,"byteLength":148},{"buffer":0,"byteOffset":14788,"byteLength":592},{"buffer":0,"byteOffset":15380,"byteLength":148},{"buffer":0,"byteOffset":15528,"byteLength":592},{"buffer":0,"byteOffset":16120,"byteLength":40},{"buffer":0,"byteOffset":16160,"byteLength":160},{"buffer":0,"byteOffset":16320,"byteLength":40},{"buffer":0,"byteOffset":16360,"byteLength":160},{"buffer":0,"byteOffset":16520,"byteLength":40},{"buffer":0,"byteOffset":16560,"byteLength":160},{"buffer":0,"byteOffset":16720,"byteLength":40},{"buffer":0,"byteOffset":16760,"byteLength":160},{"buffer":0,"byteOffset":16920,"byteLength":4},{"buffer":0,"byteOffset":16924,"byteLength":16},{"buffer":0,"byteOffset":16940,"byteLength":4},{"buffer":0,"byteOffset":16944,"byteLength":16}],"buffers":[{"byteLength":16960,"uri":"data:application/octet-stream;base64,"}],"accessors":[{"bufferView":0,"componentType":5126,"count":24,"max":[-0.0625,0.375,-0.25],"min":[-0.125,0.1875,-0.4375],"type":"VEC3"},{"bufferView":1,"componentType":5126,"count":24,"max":[1,1,1],"min":[-1,-1,-1],"type":"VEC3"},{"bufferView":2,"componentType":5126,"count":24,"max":[0.1717529296875,0.0467529296875],"min":[0.1094970703125,0.0001220703125],"type":"VEC2"},{"bufferView":3,"componentType":5123,"count":36,"max":[23],"min":[0],"type":"SCALAR"},{"bufferView":4,"componentType":5126,"count":24,"max":[0.25,0.5,0.25],"min":[-0.25,0,-0.5625],"type":"VEC3"},{"bufferView":5,"componentType":5126,"count":24,"max":[1,1,1],"min":[-1,-1,-1],"type":"VEC3"},{"bufferView":6,"componentType":5126,"count":24,"max":[0.6326904296875,0.1639404296875],"min":[0.3048095703125,0.0001220703125],"type":"VEC2"},{"bufferView":7,"componentType":5123,"count":36,"max":[23],"min":[0],"type":"SCALAR"},{"bufferView":8,"componentType":5126,"count":24,"max":[0.125,0.375,-0.25],"min":[0.0625,0.1875,-0.4375],"type":"VEC3"},{"bufferView":9,"componentType":5126,"count":24,"max":[1,1,1],"min":[-1,-1,-1],"type":"VEC3"},{"bufferView":10,"componentType":5126,"count":24,"max":[0.1326904296875,0.0858154296875],"min":[0.0704345703125,0.0391845703125],"type":"VEC2"},{"bufferView":11,"componentType":5123,"count":36,"max":[23],"min":[0],"type":"SCALAR"},{"bufferView":12,"componentType":5126,"count":24,"max":[0.125,0.5,1.375],"min":[-0.125,0.125,-0.5625],"type":"VEC3"},{"bufferView":13,"componentType":5126,"count":24,"max":[1,1,1],"min":[-1,-1,-1],"type":"VEC3"},{"bufferView":14,"componentType":5126,"count":24,"max":[0.5467529296875,0.2889404296875],"min":[0.0001220703125,0.0001220703125],"type":"VEC2"},{"bufferView":15,"componentType":5123,"count":36,"max":[23],"min":[0],"type":"SCALAR"},{"bufferView":16,"componentType":5126,"count":24,"max":[0.0000625000029685907,0.9375,-0.125],"min":[0,-0.25,-0.8125],"type":"VEC3"},{"bufferView":17,"componentType":5126,"count":24,"max":[1,1,1],"min":[-1,-1,-1],"type":"VEC3"},{"bufferView":18,"componentType":5126,"count":24,"max":[0.1719970703125,0.2342529296875],"min":[0.0001220703125,0.0001220703125],"type":"VEC2"},{"bufferView":19,"componentType":5123,"count":36,"max":[23],"min":[0],"type":"SCALAR"},{"bufferView":20,"componentType":5126,"count":24,"max":[0.0000625000029685907,1,-0.1875],"min":[0,-0.125,-0.625],"type":"VEC3"},{"bufferView":21,"componentType":5126,"count":24,"max":[1,1,1],"min":[-1,-1,-1],"type":"VEC3"},{"bufferView":22,"componentType":5126,"count":24,"max":[0.1094970703125,0.4295654296875],"min":[0.0001220703125,0.2344970703125],"type":"VEC2"},{"bufferView":23,"componentType":5123,"count":36,"max":[23],"min":[0],"type":"SCALAR"},{"bufferView":24,"componentType":5126,"count":24,"max":[0.1875,0.5,0.5625],"min":[-0.1875,0.0625,-0.6875],"type":"VEC3"},{"bufferView":25,"componentType":5126,"count":24,"max":[1,1,1],"min":[-1,-1,-1],"type":"VEC3"},{"bufferView":26,"componentType":5126,"count":24,"max":[0.4061279296875,0.4998779296875],"min":[0.0001220703125,0.2891845703125],"type":"VEC2"},{"bufferView":27,"componentType":5123,"count":36,"max":[23],"min":[0],"type":"SCALAR"},{"bufferView":28,"componentType":5126,"count":24,"max":[0.0000625000029685907,0.75,-0.125],"min":[0,-0.125,-0.8125],"type":"VEC3"},{"bufferView":29,"componentType":5126,"count":24,"max":[1,1,1],"min":[-1,-1,-1],"type":"VEC3"},{"bufferView":30,"componentType":5126,"count":24,"max":[0.5782470703125,0.5467529296875],"min":[0.4063720703125,0.3516845703125],"type":"VEC2"},{"bufferView":31,"componentType":5123,"count":36,"max":[23],"min":[0],"type":"SCALAR"},{"bufferView":32,"componentType":5126,"count":24,"max":[0,0.0000625000029685907,-0.0625],"min":[-0.25,0,-0.3125],"type":"VEC3"},{"bufferView":33,"componentType":5126,"count":24,"max":[1,1,1],"min":[-1,-1,-1],"type":"VEC3"},{"bufferView":34,"componentType":5126,"count":24,"max":[0.1248779296875,0.0626220703125],"min":[0.0001220703125,0.0313720703125],"type":"VEC2"},{"bufferView":35,"componentType":5123,"count":36,"max":[23],"min":[0],"type":"SCALAR"},{"bufferView":36,"componentType":5126,"count":24,"max":[0.25,0.0000625000029685907,-0.0625],"min":[0,0,-0.3125],"type":"VEC3"},{"bufferView":37,"componentType":5126,"count":24,"max":[1,1,1],"min":[-1,-1,-1],"type":"VEC3"},{"bufferView":38,"componentType":5126,"count":24,"max":[0.1248779296875,0.0313720703125],"min":[0.0001220703125,0.0001220703125],"type":"VEC2"},{"bufferView":39,"componentType":5123,"count":36,"max":[23],"min":[0],"type":"SCALAR"},{"bufferView":40,"componentType":5126,"count":24,"max":[0.25,0.5,0.125],"min":[-0.25,0,-0.5625],"type":"VEC3"},{"bufferView":41,"componentType":5126,"count":24,"max":[1,1,1],"min":[-1,-1,-1],"type":"VEC3"},{"bufferView":42,"componentType":5126,"count":24,"max":[0.5467529296875,0.4373779296875],"min":[0.2501220703125,0.2891845703125],"type":"VEC2"},{"bufferView":43,"componentType":5123,"count":36,"max":[23],"min":[0],"type":"SCALAR"},{"bufferView":44,"componentType":5126,"count":24,"max":[0.0000625000029685907,0.375,-0.0625],"min":[0,0,-0.5],"type":"VEC3"},{"bufferView":45,"componentType":5126,"count":24,"max":[1,1,1],"min":[-1,-1,-1],"type":"VEC3"},{"bufferView":46,"componentType":5126,"count":24,"max":[0.4141845703125,0.2108154296875],"min":[0.3048095703125,0.1094970703125],"type":"VEC2"},{"bufferView":47,"componentType":5123,"count":36,"max":[23],"min":[0],"type":"SCALAR"},{"bufferView":48,"componentType":5126,"count":39,"max":[2],"min":[0],"type":"SCALAR"},{"bufferView":49,"componentType":5126,"count":39,"max":[0,0.02181488461792469,0,1],"min":[0,-0.02181488461792469,0,0.9997619986534119],"type":"VEC4"},{"bufferView":50,"componentType":5126,"count":37,"max":[2],"min":[0],"type":"SCALAR"},{"bufferView":51,"componentType":5126,"count":37,"max":[0,0.02181488461792469,0,1],"min":[0,-0.02181488461792469,0,0.9997619986534119],"type":"VEC4"},{"bufferView":52,"componentType":5126,"count":1,"max":[0],"min":[0],"type":"SCALAR"},{"bufferView":53,"componentType":5126,"count":1,"max":[0,0,-0.44228869676589966,0.8968727588653564],"min":[0,0,-0.44228869676589966,0.8968727588653564],"type":"VEC4"},{"bufferView":54,"componentType":5126,"count":1,"max":[0],"min":[0],"type":"SCALAR"},{"bufferView":55,"componentType":5126,"count":1,"max":[0,0,0.44228869676589966,0.8968727588653564],"min":[0,0,0.44228869676589966,0.8968727588653564],"type":"VEC4"},{"bufferView":56,"componentType":5126,"count":37,"max":[2],"min":[0],"type":"SCALAR"},{"bufferView":57,"componentType":5126,"count":37,"max":[0.0027859187684953213,0.10886687785387039,0.06540312618017197,0.99786776304245],"min":[-0.0027859187684953213,-0.10886687785387039,-0.06540312618017197,0.9940563440322876],"type":"VEC4"},{"bufferView":58,"componentType":5126,"count":37,"max":[2],"min":[0],"type":"SCALAR"},{"bufferView":59,"componentType":5126,"count":37,"max":[0,0,0.05451450124382973,1],"min":[0,0,-0.05421194061636925,0.9985129833221436],"type":"VEC4"},{"bufferView":60,"componentType":5126,"count":39,"max":[2],"min":[0],"type":"SCALAR"},{"bufferView":61,"componentType":5126,"count":39,"max":[0,0.13052618503570557,0,1],"min":[0,-0.13052618503570557,0,0.9914448857307434],"type":"VEC4"},{"bufferView":62,"componentType":5126,"count":37,"max":[2],"min":[0],"type":"SCALAR"},{"bufferView":63,"componentType":5126,"count":37,"max":[0,0.1736481785774231,0,1],"min":[0,-0.1736481785774231,0,0.9848077297210693],"type":"VEC4"},{"bufferView":64,"componentType":5126,"count":37,"max":[2],"min":[0],"type":"SCALAR"},{"bufferView":65,"componentType":5126,"count":37,"max":[0,0,-0.2798290252685547,0.9600498676300049],"min":[0,0,-0.5,0.8660253882408142],"type":"VEC4"},{"bufferView":66,"componentType":5126,"count":37,"max":[2],"min":[0],"type":"SCALAR"},{"bufferView":67,"componentType":5126,"count":37,"max":[0,0,0.5,0.9600498676300049],"min":[0,0,0.2798290252685547,0.8660253882408142],"type":"VEC4"},{"bufferView":68,"componentType":5126,"count":10,"max":[0.5],"min":[0],"type":"SCALAR"},{"bufferView":69,"componentType":5126,"count":10,"max":[0,0.04361938685178757,0,1],"min":[0,-0.04361938685178757,0,0.9990482330322266],"type":"VEC4"},{"bufferView":70,"componentType":5126,"count":10,"max":[0.5],"min":[0],"type":"SCALAR"},{"bufferView":71,"componentType":5126,"count":10,"max":[0,0,0.044426627457141876,1],"min":[0,0,-0.044426627457141876,0.9990126490592957],"type":"VEC4"},{"bufferView":72,"componentType":5126,"count":10,"max":[0.5],"min":[0],"type":"SCALAR"},{"bufferView":73,"componentType":5126,"count":10,"max":[0,0.06540312618017197,0,1],"min":[0,-0.06540312618017197,0,0.9978589415550232],"type":"VEC4"},{"bufferView":74,"componentType":5126,"count":10,"max":[0.5],"min":[0],"type":"SCALAR"},{"bufferView":75,"componentType":5126,"count":10,"max":[0,0.06540312618017197,0,1],"min":[0,-0.06540312618017197,0,0.9978589415550232],"type":"VEC4"},{"bufferView":76,"componentType":5126,"count":1,"max":[0],"min":[0],"type":"SCALAR"},{"bufferView":77,"componentType":5126,"count":1,"max":[0,0,-0.3214394748210907,0.9469301104545593],"min":[0,0,-0.3214394748210907,0.9469301104545593],"type":"VEC4"},{"bufferView":78,"componentType":5126,"count":1,"max":[0],"min":[0],"type":"SCALAR"},{"bufferView":79,"componentType":5126,"count":1,"max":[0,0,0.3214394748210907,0.9469301104545593],"min":[0,0,0.3214394748210907,0.9469301104545593],"type":"VEC4"}],"materials":[{"pbrMetallicRoughness":{"metallicFactor":0,"roughnessFactor":1,"baseColorTexture":{"index":0}},"alphaMode":"MASK","alphaCutoff":0.05,"doubleSided":true}],"textures":[{"sampler":0,"source":0,"name":"texture"}],"samplers":[{"magFilter":9728,"minFilter":9728,"wrapS":33071,"wrapT":33071}],"images":[{"mimeType":"image/png","uri":"data:image/png;base64,"}],"meshes":[{"primitives":[{"mode":4,"attributes":{"POSITION":0,"NORMAL":1,"TEXCOORD_0":2},"indices":3,"material":0}]},{"primitives":[{"mode":4,"attributes":{"POSITION":4,"NORMAL":5,"TEXCOORD_0":6},"indices":7,"material":0}]},{"primitives":[{"mode":4,"attributes":{"POSITION":8,"NORMAL":9,"TEXCOORD_0":10},"indices":11,"material":0}]},{"primitives":[{"mode":4,"attributes":{"POSITION":12,"NORMAL":13,"TEXCOORD_0":14},"indices":15,"material":0}]},{"primitives":[{"mode":4,"attributes":{"POSITION":16,"NORMAL":17,"TEXCOORD_0":18},"indices":19,"material":0}]},{"primitives":[{"mode":4,"attributes":{"POSITION":20,"NORMAL":21,"TEXCOORD_0":22},"indices":23,"material":0}]},{"primitives":[{"mode":4,"attributes":{"POSITION":24,"NORMAL":25,"TEXCOORD_0":26},"indices":27,"material":0}]},{"primitives":[{"mode":4,"attributes":{"POSITION":28,"NORMAL":29,"TEXCOORD_0":30},"indices":31,"material":0}]},{"primitives":[{"mode":4,"attributes":{"POSITION":32,"NORMAL":33,"TEXCOORD_0":34},"indices":35,"material":0}]},{"primitives":[{"mode":4,"attributes":{"POSITION":36,"NORMAL":37,"TEXCOORD_0":38},"indices":39,"material":0}]},{"primitives":[{"mode":4,"attributes":{"POSITION":40,"NORMAL":41,"TEXCOORD_0":42},"indices":43,"material":0}]},{"primitives":[{"mode":4,"attributes":{"POSITION":44,"NORMAL":45,"TEXCOORD_0":46},"indices":47,"material":0}]}],"animations":[{"name":"idle","samplers":[{"input":48,"output":49,"interpolation":"LINEAR"},{"input":50,"output":51,"interpolation":"LINEAR"},{"input":52,"output":53,"interpolation":"LINEAR"},{"input":54,"output":55,"interpolation":"LINEAR"}],"channels":[{"sampler":0,"target":{"node":10,"path":"rotation"}},{"sampler":1,"target":{"node":7,"path":"rotation"}},{"sampler":2,"target":{"node":12,"path":"rotation"}},{"sampler":3,"target":{"node":14,"path":"rotation"}}]},{"name":"swiming","samplers":[{"input":56,"output":57,"interpolation":"LINEAR"},{"input":58,"output":59,"interpolation":"LINEAR"},{"input":60,"output":61,"interpolation":"LINEAR"},{"input":62,"output":63,"interpolation":"LINEAR"},{"input":64,"output":65,"interpolation":"LINEAR"},{"input":66,"output":67,"interpolation":"LINEAR"}],"channels":[{"sampler":0,"target":{"node":3,"path":"rotation"}},{"sampler":1,"target":{"node":17,"path":"rotation"}},{"sampler":2,"target":{"node":10,"path":"rotation"}},{"sampler":3,"target":{"node":7,"path":"rotation"}},{"sampler":4,"target":{"node":12,"path":"rotation"}},{"sampler":5,"target":{"node":14,"path":"rotation"}}]},{"name":"swiming_fast","samplers":[{"input":68,"output":69,"interpolation":"LINEAR"},{"input":70,"output":71,"interpolation":"LINEAR"},{"input":72,"output":73,"interpolation":"LINEAR"},{"input":74,"output":75,"interpolation":"LINEAR"},{"input":76,"output":77,"interpolation":"LINEAR"},{"input":78,"output":79,"interpolation":"LINEAR"}],"channels":[{"sampler":0,"target":{"node":3,"path":"rotation"}},{"sampler":1,"target":{"node":17,"path":"rotation"}},{"sampler":2,"target":{"node":10,"path":"rotation"}},{"sampler":3,"target":{"node":7,"path":"rotation"}},{"sampler":4,"target":{"node":12,"path":"rotation"}},{"sampler":5,"target":{"node":14,"path":"rotation"}}]}]}